<svg xmlns="http://www.w3.org/2000/svg" xmlns:xlink="http://www.w3.org/1999/xlink" version="1.0" preserveAspectRatio="xMidYMid meet" color-interpolation-filters="sRGB" viewBox="0 0 71.37 130.33" width="100%" height="100%"><title>Admin.NET</title><g transform="translate(0,0)" class="logo-group"><g transform="translate(6.55518981786264,0.855000019073486)" class="logo-icon"><svg xmlns="http://www.w3.org/2000/svg" xmlns:xlink="http://www.w3.org/1999/xlink" version="1.0" preserveAspectRatio="xMidYMid meet" color-interpolation-filters="sRGB" width="58.88962036427475" height="80"><svg xmlns="http://www.w3.org/2000/svg" viewBox="0 0 67.09 91.14"><g id="e0e9c2ab-b56f-4cf0-b5d7-255de146ae8f" data-name="Layer 1"><path d="M0,58.26S12.09,75.19,36.8,76.53c18.37,1,29.8-5.32,30.28,2C67.52,85,48,84.89,37.16,82.74,17.59,78.85,5.23,68.62,0,58.26Z" fill="#094"/><path d="M50.44,87.72C35.88,85,28.91,82.79,10.63,83.59A151.83,151.83,0,0,1,48.21,90.3C55.7,92.74,58.46,89.24,50.44,87.72Z" fill="#094"/><path d="M39.89,74.56S26.85,47.82,45.1,0c-2.2,37.44,17,63.24,17,63.24S45.28,61.28,39.89,74.56Z" fill="#00579b"/><path d="M18.26,67.61S11,52.74,21.16,26.16A57.62,57.62,0,0,0,30.6,61.31S21.26,60.23,18.26,67.61Z" fill="#00579b"/></g></svg>
</svg></g><g transform="translate(-1.31499862670898,85.8550000190735)" class="logo-text"><path d="M17.19 23.49L17.19 23.49L9.93 5.19L7.65 5.19L7.65 2.82L11.52 2.82L19.38 22.62L17.19 23.49ZM3.30 23.55L3.30 23.55L1.11 22.68L8.70 3.63L10.89 4.50L3.30 23.55ZM15.78 17.31L15.78 17.31L5.16 17.31L5.16 14.94L15.78 14.94L15.78 17.31ZM28.23 23.13L28.23 23.13Q26.91 23.13 25.74 22.61Q24.57 22.08 23.70 21.15Q22.83 20.22 22.32 19.00Q21.81 17.79 21.81 16.38L21.81 16.38Q21.81 15 22.32 13.77Q22.83 12.54 23.70 11.63Q24.57 10.71 25.74 10.18Q26.91 9.66 28.23 9.66L28.23 9.66Q30 9.66 31.59 10.68L31.59 10.68L31.59 4.80L30.18 4.80L30.18 2.46L33.96 2.46L33.96 23.19L31.59 23.19L31.59 22.11Q30.06 23.13 28.23 23.13ZM28.23 12.03L28.23 12.03Q27.39 12.03 26.66 12.38Q25.92 12.72 25.37 13.30Q24.81 13.89 24.50 14.68Q24.18 15.48 24.18 16.38L24.18 16.38Q24.18 17.28 24.50 18.09Q24.81 18.90 25.37 19.48Q25.92 20.07 26.66 20.41Q27.39 20.76 28.23 20.76L28.23 20.76Q29.25 20.76 30.12 20.25Q30.99 19.74 31.59 18.87L31.59 18.87L31.59 13.95Q30.99 13.05 30.12 12.54Q29.25 12.03 28.23 12.03ZM48.42 9.90L48.42 9.90Q49.47 9.90 50.37 10.29Q51.27 10.68 51.92 11.37Q52.56 12.06 52.94 12.99Q53.31 13.92 53.31 15.03L53.31 15.03L53.31 22.98L50.76 22.98L50.76 15.03Q50.76 13.92 50.10 13.20Q49.44 12.48 48.42 12.48L48.42 12.48Q47.43 12.48 46.77 13.20Q46.11 13.92 46.11 15.03L46.11 15.03L46.11 22.98L43.56 22.98L43.56 15.03Q43.56 13.92 42.90 13.20Q42.24 12.48 41.25 12.48L41.25 12.48Q40.23 12.48 39.59 13.20Q38.94 13.92 38.94 15.03L38.94 15.03L38.94 22.98L36.36 22.98L36.36 12.57L35.91 12.57L35.91 9.99L38.94 9.99L38.94 10.47Q39.99 9.90 41.25 9.90L41.25 9.90Q42.33 9.90 43.25 10.32Q44.16 10.74 44.85 11.49L44.85 11.49Q45.51 10.74 46.42 10.32Q47.34 9.90 48.42 9.90ZM57.87 10.56L57.87 23.07L55.41 23.07L55.41 10.56L57.87 10.56ZM57.87 5.67L57.87 8.34L55.41 8.34L55.41 5.67L57.87 5.67ZM72.48 15.51L72.48 22.92L69.93 22.92L69.93 15.51Q69.93 14.88 69.66 14.32Q69.39 13.77 68.94 13.35Q68.49 12.93 67.91 12.68Q67.32 12.42 66.66 12.42L66.66 12.42Q66.03 12.42 65.45 12.66Q64.86 12.90 64.41 13.30Q63.96 13.71 63.68 14.25Q63.39 14.79 63.36 15.39L63.36 15.39L63.36 22.92L60.81 22.92L60.81 12.51L59.91 12.51L59.91 9.96L63.36 9.96L63.36 10.86Q64.08 10.38 64.92 10.11Q65.76 9.84 66.66 9.84L66.66 9.84Q67.83 9.84 68.90 10.29Q69.96 10.74 70.75 11.52Q71.55 12.30 72.02 13.33Q72.48 14.37 72.48 15.51L72.48 15.51Z" fill="#333"/></g>
<g transform="translate(19.7150001525879,114.94500017166138)" class="logo-slug"><path d="M2.83 11.52L2.83 11.52L1.65 11.52L1.65 10.26L2.83 10.26L2.83 11.52ZM7.50 12.46L7.50 12.46L6.24 12.46L6.24 2.08L7.50 2.08L7.50 12.46ZM13.81 12.45L13.81 12.45L12.64 12.45L7.42 2.70L5.89 2.70L5.89 1.46L8.18 1.46L12.54 9.60L12.54 1.33L13.81 1.33L13.81 12.45ZM24.05 12.53L24.05 12.53L16.53 12.53L16.53 2.22L17.78 2.22L17.78 11.28L24.05 11.28L24.05 12.53ZM23.10 7.65L23.10 7.65L16.64 7.65L16.64 6.38L23.10 6.38L23.10 7.65ZM23.94 2.77L23.94 2.77L16.11 2.77L16.11 1.50L23.94 1.50L23.94 2.77ZM30.70 12.38L30.70 12.38L29.44 12.38L29.44 2.08L30.70 2.08L30.70 12.38ZM34.22 2.70L34.22 2.70L25.92 2.70L25.92 1.46L34.22 1.46L34.22 2.70Z" fill="#333"/></g></g></svg>

