<svg xmlns="http://www.w3.org/2000/svg" xmlns:xlink="http://www.w3.org/1999/xlink" version="1.0" preserveAspectRatio="xMidYMid meet" color-interpolation-filters="sRGB" viewBox="0 0 67.09 91.14"><title>Admin.NET</title><g id="e0e9c2ab-b56f-4cf0-b5d7-255de146ae8f" data-name="Layer 1"><path d="M0,58.26S12.09,75.19,36.8,76.53c18.37,1,29.8-5.32,30.28,2C67.52,85,48,84.89,37.16,82.74,17.59,78.85,5.23,68.62,0,58.26Z" fill="#094"/><path d="M50.44,87.72C35.88,85,28.91,82.79,10.63,83.59A151.83,151.83,0,0,1,48.21,90.3C55.7,92.74,58.46,89.24,50.44,87.72Z" fill="#094"/><path d="M39.89,74.56S26.85,47.82,45.1,0c-2.2,37.44,17,63.24,17,63.24S45.28,61.28,39.89,74.56Z" fill="#00579b"/><path d="M18.26,67.61S11,52.74,21.16,26.16A57.62,57.62,0,0,0,30.6,61.31S21.26,60.23,18.26,67.61Z" fill="#00579b"/></g></svg>